<?xml version="1.0" encoding="UTF-8" standalone="no"?>
<!-- Created with Inkscape (http://www.inkscape.org/) -->

<svg
   xmlns:dc="http://purl.org/dc/elements/1.1/"
   xmlns:cc="http://creativecommons.org/ns#"
   xmlns:rdf="http://www.w3.org/1999/02/22-rdf-syntax-ns#"
   xmlns:svg="http://www.w3.org/2000/svg"
   xmlns="http://www.w3.org/2000/svg"
   xmlns:sodipodi="http://sodipodi.sourceforge.net/DTD/sodipodi-0.dtd"
   xmlns:inkscape="http://www.inkscape.org/namespaces/inkscape"
   width="1500"
   height="1500"
   viewBox="0 0 396.87499 396.87501"
   version="1.1"
   id="svg8"
   inkscape:version="0.92.1 r15371"
   sodipodi:docname="PAW6.svg">
  <defs
     id="defs2">
    <clipPath
       clipPathUnits="userSpaceOnUse"
       id="clipPath1248">
      <path
         d="M 25.602,139.723 H 864 V 734.996 H 25.602 Z"
         id="path1246"
         inkscape:connector-curvature="0" />
    </clipPath>
    <clipPath
       clipPathUnits="userSpaceOnUse"
       id="clipPath1258">
      <path
         d="M 25,139 H 864 V 735 H 25 Z"
         id="path1256"
         inkscape:connector-curvature="0" />
    </clipPath>
  </defs>
  <sodipodi:namedview
     id="base"
     pagecolor="#ffffff"
     bordercolor="#666666"
     borderopacity="1.0"
     inkscape:pageopacity="0.0"
     inkscape:pageshadow="2"
     inkscape:zoom="0.35"
     inkscape:cx="736.18998"
     inkscape:cy="710.83409"
     inkscape:document-units="px"
     inkscape:current-layer="layer1"
     showgrid="false"
     inkscape:snap-global="false"
     units="px"
     inkscape:window-width="1366"
     inkscape:window-height="745"
     inkscape:window-x="-8"
     inkscape:window-y="-8"
     inkscape:window-maximized="1" />
  <metadata
     id="metadata5">
    <rdf:RDF>
      <cc:Work
         rdf:about="">
        <dc:format>image/svg+xml</dc:format>
        <dc:type
           rdf:resource="http://purl.org/dc/dcmitype/StillImage" />
        <dc:title></dc:title>
      </cc:Work>
    </rdf:RDF>
  </metadata>
  <g
     inkscape:label="Layer 1"
     inkscape:groupmode="layer"
     id="layer1"
     transform="translate(0,99.875017)">
    <path
       inkscape:connector-curvature="0"
       id="path7377"
       style="fill:#559911;fill-opacity:1;fill-rule:nonzero;stroke:none;stroke-width:0.35277778"
       d="m 240.22964,-20.404444 c -1.1243,-0.03034 -2.25178,0.02081 -3.3789,0.148872 -2.24896,0.260703 -4.48557,0.847725 -6.67244,1.751542 -15.59384,6.443838 -26.31652,27.802063 -25.64236,51.07446 0.37606,12.972697 4.2926,25.003124 10.88496,33.447566 6.59271,8.441972 15.32114,12.604749 24.27005,11.570052 8.94609,-1.033639 17.37854,-7.181144 23.44032,-17.089261 6.06072,-9.906705 9.25371,-22.76228 8.87589,-35.736388 -0.72743,-25.12730189 -14.46389,-44.651435 -31.77752,-45.166843 z m -79.90275,1.061155 c -0.56374,-0.0039 -1.1243,0.0085 -1.68522,0.04022 -2.24614,0.143228 -4.46229,0.611717 -6.61458,1.399822 v 0.0028 c -14.1471,5.18548 -23.72149,23.3510657 -23.61953,44.811243 0.13229,27.027363 15.39134,50.17276 34.08574,51.698171 8.97784,0.733425 17.56163,-3.721805 23.86612,-12.382852 6.30449,-8.659636 9.81181,-20.818122 9.74831,-33.799286 -0.0593,-12.979752 -3.69041,-25.7182048 -10.08451,-35.4139491 -6.39268,-9.6946859 -15.0301,-15.5525609 -24.00688,-16.2831639 -0.56339,-0.04939 -1.12712,-0.06879 -1.68945,-0.07973 z m 138.20069,67.798243 c -0.40217,-0.0042 -0.8061,-0.0014 -1.2125,0.0095 -3.43817,0.124178 -6.93173,0.978606 -10.36143,2.530123 v -0.0014 c -14.12769,6.392686 -25.42505,23.749 -28.45259,43.708813 -1.94839,12.83229 -0.24377,25.36825 4.73498,34.85445 4.97876,9.48372 12.82665,15.13663 21.81578,15.71519 18.71663,1.20297 37.17396,-19.47863 41.2309,-46.200134 4.05271,-26.724327 -7.83413,-49.365252 -26.54935,-50.572457 -0.4011,-0.03034 -0.80186,-0.03986 -1.20579,-0.04974 z m -196.76992,0.553861 c -0.81174,-0.0095 -1.61501,0.02893 -2.414406,0.09913 -2.257073,0.206728 -4.449586,0.735894 -6.547203,1.575153 -14.951428,5.997222 -22.741819,26.780771 -18.629489,49.698982 4.773436,26.60297 23.782161,46.78186 42.459978,45.073 8.96973,-0.81985 16.66346,-6.68372 21.38433,-16.29939 4.72264,-9.61319 6.08683,-22.19219 3.79519,-34.969096 -4.53637,-25.282877 -22.02251,-45.009505 -40.0484,-45.174957 z m 95.4719,37.286847 c -3.20287,0.0042 -6.33906,0.778933 -9.39024,2.147005 -16.4786,7.38505 -30.47118,32.051973 -39.12517,46.092883 -10.25525,16.64512 -30.56079,46.84078 -20.31224,63.45449 10.24855,16.61372 48.19403,7.59425 68.69924,7.56391 20.50521,-0.0303 58.65354,8.8773 68.90737,-7.76534 C 276.26695,181.1449 255.97235,151.01133 245.7238,134.39762 235.47561,117.7839 217.73477,86.266734 197.22956,86.295662 Z m 25.81204,45.526328 c 0.39935,-0.008 0.67099,0.004 1.01953,0.0497 2.28882,0.28928 4.24321,1.66476 5.27121,3.71087 0.34149,0.68086 0.54292,1.56421 0.64346,2.82222 0.0194,0.28257 0.0194,1.41675 0,1.70603 -0.0801,1.05446 -0.23565,1.81504 -0.50588,2.51213 -0.6477,1.66194 -1.64394,3.01802 -3.36091,4.57094 -0.82268,0.74437 -1.78859,1.51448 -3.15983,2.51919 -1.66758,1.22238 -3.40784,2.71074 -4.92796,4.21675 -0.64629,0.641 -0.86677,0.88477 -0.97296,1.07915 -0.0494,0.10054 -0.0896,0.14323 -0.10336,0.14323 -0.004,0 -0.0205,-0.007 -0.0303,-0.0194 -0.008,-0.008 -0.0702,-0.10055 -0.11959,-0.19544 -0.28399,-0.50306 -0.5969,-0.89994 -1.12889,-1.43193 -0.45191,-0.45191 -0.95638,-0.90523 -1.63019,-1.46614 -0.52211,-0.43568 -0.74259,-0.60925 -1.69898,-1.33244 -2.72732,-2.06446 -3.28541,-2.51249 -4.45523,-3.57894 -0.99765,-0.91087 -1.67287,-1.66616 -2.23237,-2.49837 -0.93592,-1.39594 -1.42205,-2.82363 -1.56845,-4.61362 -0.16793,-1.53106 0.004,-3.06353 0.57749,-4.17407 0.67522,-1.36843 1.63725,-2.42535 2.83457,-3.11432 0.25788,-0.15029 0.91793,-0.47273 1.15218,-0.56515 1.78046,-0.5334 3.78424,-0.45473 5.25462,0.3309 0.63112,0.34714 1.07315,0.68615 1.60796,1.23049 0.45755,0.46708 0.81457,0.94121 1.04881,1.39735 0.14746,0.28399 0.19826,0.42581 0.2988,0.82268 0.0512,0.19579 0.1009,0.36654 0.10196,0.37888 0.008,0.0208 0.0593,-0.0896 0.2233,-0.4452 0.22896,-0.50024 0.37924,-0.80328 0.51153,-1.02517 0.84737,-1.41394 2.17029,-2.39783 3.78672,-2.81658 0.5401,-0.14076 0.98107,-0.20144 1.5628,-0.21237 z" />
  </g>
</svg>
